<svg width="120" height="24" viewBox="0 0 120 24" fill="none" xmlns="http://www.w3.org/2000/svg">
<g clip-path="url(#clip0_148_1037)">
<path d="M441 -250H-925V518H441V-250Z" fill="#F8F8F8"/>
<path d="M12 22C17.5228 22 22 17.5228 22 12C22 6.47715 17.5228 2 12 2C6.47715 2 2 6.47715 2 12C2 17.5228 6.47715 22 12 22Z" stroke="black" stroke-width="2" stroke-linecap="round" stroke-linejoin="round"/>
<path opacity="0.3" d="M12 6V12L15 15" stroke="black" stroke-width="2" stroke-linecap="round" stroke-linejoin="round"/>
</g>
<g clip-path="url(#clip1_148_1037)">
<path d="M926 -404H-440V364H926V-404Z" fill="#F8F8F8"/>
<path d="M36 17C38.7614 17 41 14.7614 41 12C41 9.23858 38.7614 7 36 7C33.2386 7 31 9.23858 31 12C31 14.7614 33.2386 17 36 17Z" stroke="#333333" stroke-opacity="0.4" stroke-width="2" stroke-linecap="round" stroke-linejoin="round"/>
<path d="M36 1V3" stroke="#333333" stroke-opacity="0.1" stroke-width="2" stroke-linecap="round" stroke-linejoin="round"/>
<path d="M36 21V23" stroke="#333333" stroke-opacity="0.1" stroke-width="2" stroke-linecap="round" stroke-linejoin="round"/>
<path d="M28.22 4.21973L29.64 5.63973" stroke="#333333" stroke-opacity="0.1" stroke-width="2" stroke-linecap="round" stroke-linejoin="round"/>
<path d="M42.36 18.3604L43.78 19.7804" stroke="#333333" stroke-opacity="0.1" stroke-width="2" stroke-linecap="round" stroke-linejoin="round"/>
<path d="M25 12H27" stroke="#333333" stroke-opacity="0.1" stroke-width="2" stroke-linecap="round" stroke-linejoin="round"/>
<path d="M45 12H47" stroke="#333333" stroke-opacity="0.1" stroke-width="2" stroke-linecap="round" stroke-linejoin="round"/>
<path d="M28.22 19.7804L29.64 18.3604" stroke="#333333" stroke-opacity="0.1" stroke-width="2" stroke-linecap="round" stroke-linejoin="round"/>
<path d="M42.36 5.63973L43.78 4.21973" stroke="#333333" stroke-opacity="0.1" stroke-width="2" stroke-linecap="round" stroke-linejoin="round"/>
</g>
<g clip-path="url(#clip2_148_1037)">
<path d="M274 -250H-1092V518H274V-250Z" fill="#F8F8F8"/>
<path d="M60 17C62.7614 17 65 14.7614 65 12C65 9.23858 62.7614 7 60 7C57.2386 7 55 9.23858 55 12C55 14.7614 57.2386 17 60 17Z" stroke="#F5A623" stroke-width="2" stroke-linecap="round" stroke-linejoin="round"/>
<path d="M60 1V3" stroke="#FFD93E" stroke-width="2" stroke-linecap="round" stroke-linejoin="round"/>
<path d="M60 21V23" stroke="#FFD93E" stroke-width="2" stroke-linecap="round" stroke-linejoin="round"/>
<path d="M52.22 4.21973L53.64 5.63973" stroke="#FFD93E" stroke-width="2" stroke-linecap="round" stroke-linejoin="round"/>
<path d="M66.36 18.3604L67.78 19.7804" stroke="#FFD93E" stroke-width="2" stroke-linecap="round" stroke-linejoin="round"/>
<path d="M49 12H51" stroke="#FFD93E" stroke-width="2" stroke-linecap="round" stroke-linejoin="round"/>
<path d="M69 12H71" stroke="#FFD93E" stroke-width="2" stroke-linecap="round" stroke-linejoin="round"/>
<path d="M52.22 19.7804L53.64 18.3604" stroke="#FFD93E" stroke-width="2" stroke-linecap="round" stroke-linejoin="round"/>
<path d="M66.36 5.63973L67.78 4.21973" stroke="#FFD93E" stroke-width="2" stroke-linecap="round" stroke-linejoin="round"/>
</g>
<g clip-path="url(#clip3_148_1037)">
<path d="M974 -269H-392V499H974V-269Z" fill="#F8F8F8"/>
<path fill-rule="evenodd" clip-rule="evenodd" d="M86.0003 14.76V3.5C86.0003 2.11929 84.8811 1 83.5003 1C82.1196 1 81.0003 2.11929 81.0003 3.5V14.76C79.3522 15.8612 78.6187 17.9111 79.1941 19.8079C79.7695 21.7047 81.5182 23.0017 83.5003 23.0017C85.4825 23.0017 87.2312 21.7047 87.8066 19.8079C88.382 17.9111 87.6485 15.8612 86.0003 14.76Z" stroke="#333333" stroke-opacity="0.4" stroke-width="2" stroke-linecap="round" stroke-linejoin="round"/>
<path d="M83.5 22C85.433 22 87 20.433 87 18.5C87 16.567 85.433 15 83.5 15C81.567 15 80 16.567 80 18.5C80 20.433 81.567 22 83.5 22Z" fill="#333333" fill-opacity="0.1"/>
</g>
<g clip-path="url(#clip4_148_1037)">
<path d="M537 -365H-829V403H537V-365Z" fill="#F8F8F8"/>
<path fill-rule="evenodd" clip-rule="evenodd" d="M110 14.76V3.5C110 2.11929 108.881 1 107.5 1C106.119 1 105 2.11929 105 3.5V14.76C103.352 15.8612 102.618 17.9111 103.194 19.8079C103.769 21.7047 105.518 23.0017 107.5 23.0017C109.482 23.0017 111.231 21.7047 111.806 19.8079C112.382 17.9111 111.648 15.8612 110 14.76Z" stroke="#F5A623" stroke-width="2" stroke-linecap="round" stroke-linejoin="round"/>
<path d="M107.5 22C109.433 22 111 20.433 111 18.5C111 16.567 109.433 15 107.5 15C105.567 15 104 16.567 104 18.5C104 20.433 105.567 22 107.5 22Z" fill="#FFD93E"/>
</g>
<defs>
<clipPath id="clip0_148_1037">
<rect width="24" height="24" fill="white"/>
</clipPath>
<clipPath id="clip1_148_1037">
<rect width="24" height="24" fill="white" transform="translate(24)"/>
</clipPath>
<clipPath id="clip2_148_1037">
<rect width="24" height="24" fill="white" transform="translate(48)"/>
</clipPath>
<clipPath id="clip3_148_1037">
<rect width="24" height="24" fill="white" transform="translate(72)"/>
</clipPath>
<clipPath id="clip4_148_1037">
<rect width="24" height="24" fill="white" transform="translate(96)"/>
</clipPath>
</defs>
</svg>
